<svg width="538" height="320" viewBox="0 0 538 320" fill="none" xmlns="http://www.w3.org/2000/svg">
<g clip-path="url(#clip0)">
<path d="M13.2485 455.733C10.9844 457.048 8.78884 458.431 6.78765 459.805C4.78646 461.178 3.0187 462.513 1.58577 463.735C0.152852 464.957 -0.917172 466.042 -1.56323 466.926C-2.20928 467.81 -2.41847 468.478 -2.17909 468.89C-1.93972 469.302 -1.25646 469.45 -0.168174 469.327C0.920116 469.203 2.39188 468.811 4.16306 468.171C5.93423 467.531 7.97011 466.656 10.154 465.598C12.3378 464.539 14.627 463.316 16.8903 462L828.685 -9.72655C833.252 -12.3804 837.44 -15.2558 840.328 -17.72C843.216 -20.1842 844.567 -22.0353 844.084 -22.8664C843.601 -23.6975 841.324 -23.4404 837.753 -22.1515C834.182 -20.8627 829.61 -18.6476 825.043 -15.9937L13.2485 455.733Z" fill="#D1D0D0"/>
<path d="M-170.654 510.422C-173.325 512.039 -175.922 513.721 -178.296 515.372C-180.67 517.023 -182.775 518.61 -184.49 520.043C-186.205 521.476 -187.497 522.726 -188.292 523.722C-189.087 524.718 -189.369 525.44 -189.122 525.848C-188.875 526.255 -188.104 526.34 -186.853 526.097C-185.603 525.853 -183.896 525.287 -181.832 524.43C-179.768 523.573 -177.387 522.442 -174.824 521.102C-172.262 519.763 -169.568 518.24 -166.899 516.622L790.656 -63.495C796.043 -66.7587 801.012 -70.2153 804.469 -73.1044C807.926 -75.9934 809.588 -78.0781 809.09 -78.9002C808.592 -79.7224 805.975 -79.2145 801.813 -77.4881C797.652 -75.7616 792.288 -72.9582 786.901 -69.6946L-170.654 510.422Z" fill="#D1D0D0"/>
<path d="M467.962 299.899C474.927 299.899 480.573 288.367 480.573 274.143C480.573 259.918 474.927 248.386 467.962 248.386C460.998 248.386 455.352 259.918 455.352 274.143C455.352 288.367 460.998 299.899 467.962 299.899Z" fill="#3F3D56"/>
<path d="M466.798 316.302C471.849 285.968 466.849 255.745 466.798 255.443L465.815 255.61C465.866 255.91 470.837 285.975 465.815 316.138L466.798 316.302Z" fill="#6C63FF"/>
<path d="M456.86 268.604L456.39 269.484L467.793 275.589L468.263 274.71L456.86 268.604Z" fill="#6C63FF"/>
<path d="M479.829 271.663L468.427 277.772L468.897 278.651L480.299 272.542L479.829 271.663Z" fill="#6C63FF"/>
<path d="M498.262 283.756C511.884 283.756 522.927 261.202 522.927 233.379C522.927 205.557 511.884 183.003 498.262 183.003C484.64 183.003 473.597 205.557 473.597 233.379C473.597 261.202 484.64 283.756 498.262 283.756Z" fill="#E6E6E6"/>
<path d="M495.515 315.759C505.38 256.509 495.614 197.475 495.515 196.885L494.532 197.052C494.632 197.64 504.369 256.515 494.532 315.595L495.515 315.759Z" fill="#6C63FF"/>
<path d="M476.322 222.967L475.852 223.847L498.156 235.789L498.627 234.909L476.322 222.967Z" fill="#6C63FF"/>
<path d="M521.696 228.95L499.395 240.898L499.865 241.777L522.166 229.829L521.696 228.95Z" fill="#6C63FF"/>
<path d="M439.845 271.995C458.486 271.995 473.597 241.131 473.597 203.059C473.597 164.987 458.486 134.123 439.845 134.123C421.204 134.123 406.093 164.987 406.093 203.059C406.093 241.131 421.204 271.995 439.845 271.995Z" fill="#E6E6E6"/>
<path d="M435.904 315.759C449.399 234.71 436.04 153.957 435.904 153.151L434.922 153.317C435.058 154.122 448.388 234.716 434.921 315.595L435.904 315.759Z" fill="#6C63FF"/>
<path d="M409.735 188.973L409.265 189.852L439.786 206.194L440.257 205.314L409.735 188.973Z" fill="#6C63FF"/>
<path d="M471.998 197.159L441.481 213.509L441.951 214.388L472.469 198.039L471.998 197.159Z" fill="#6C63FF"/>
<path d="M472.564 316.303H496.996C496.873 311.74 493.459 310.837 487.64 310.837H481.92C476.101 310.837 472.687 311.74 472.564 316.303Z" fill="#3F3D56"/>
</g>
<defs>
<clipPath id="clip0">
<rect width="538" height="320" fill="white"/>
</clipPath>
</defs>
</svg>
