<svg width="538" height="320" viewBox="0 0 538 320" fill="none" xmlns="http://www.w3.org/2000/svg">
<g clip-path="url(#clip0)">
<path d="M-93.7515 381.733C-96.0156 383.048 -98.2112 384.431 -100.212 385.805C-102.214 387.178 -103.981 388.513 -105.414 389.735C-106.847 390.957 -107.917 392.042 -108.563 392.926C-109.209 393.81 -109.418 394.478 -109.179 394.89C-108.94 395.302 -108.256 395.45 -107.168 395.327C-106.08 395.203 -104.608 394.811 -102.837 394.171C-101.066 393.531 -99.0299 392.656 -96.846 391.598C-94.6622 390.539 -92.373 389.316 -90.1097 388L721.685 -83.7266C726.252 -86.3804 730.44 -89.2558 733.328 -91.72C736.216 -94.1842 737.567 -96.0353 737.084 -96.8664C736.601 -97.6975 734.324 -97.4404 730.753 -96.1515C727.182 -94.8627 722.61 -92.6476 718.043 -89.9937L-93.7515 381.733Z" fill="#D1D0D0"/>
<path d="M-209.654 514.422C-212.325 516.039 -214.922 517.721 -217.296 519.372C-219.67 521.023 -221.775 522.61 -223.49 524.043C-225.205 525.476 -226.497 526.726 -227.292 527.722C-228.087 528.718 -228.369 529.44 -228.122 529.848C-227.875 530.255 -227.104 530.34 -225.853 530.097C-224.603 529.853 -222.896 529.287 -220.832 528.43C-218.768 527.573 -216.387 526.442 -213.824 525.102C-211.262 523.763 -208.568 522.24 -205.899 520.622L751.656 -59.495C757.043 -62.7587 762.012 -66.2153 765.469 -69.1044C768.926 -71.9934 770.588 -74.0781 770.09 -74.9002C769.592 -75.7224 766.975 -75.2145 762.813 -73.4881C758.652 -71.7616 753.288 -68.9582 747.901 -65.6946L-209.654 514.422Z" fill="#D1D0D0"/>
</g>
<defs>
<clipPath id="clip0">
<rect width="538" height="320" fill="white"/>
</clipPath>
</defs>
</svg>
