<svg width="966" height="730" viewBox="0 0 966 730" fill="none" xmlns="http://www.w3.org/2000/svg">
<path d="M204.085 228.157C222.823 213.644 244.716 203.748 267.99 199.269C291.449 194.798 315.64 196.041 338.518 202.893C350.018 206.317 361.067 211.105 371.43 217.154C381.989 223.326 391.53 230.925 400.71 238.97C410.009 247.12 419.003 255.633 428.711 263.306C456.426 285.46 490.833 297.563 526.315 297.641C529.246 297.646 532.175 297.565 535.102 297.399C536.689 297.311 536.7 294.831 535.102 294.919C498.935 296.911 463.219 286.118 434.207 264.431C424.145 256.907 414.958 248.304 405.579 239.968C396.486 231.886 387.149 224.024 376.833 217.531C351.599 201.634 322.243 193.519 292.426 194.198C262.61 194.878 233.654 204.322 209.171 221.353C206.843 222.971 204.569 224.663 202.332 226.404C201.074 227.383 202.84 229.127 204.085 228.158V228.157Z" fill="#3F3D56"/>
<path d="M202.769 240.143C209.885 240.143 215.654 234.373 215.654 227.257C215.654 220.14 209.885 214.371 202.769 214.371C195.652 214.371 189.883 220.14 189.883 227.257C189.883 234.373 195.652 240.143 202.769 240.143Z" fill="#3F3D56"/>
<path d="M682.146 411.231C689.263 411.231 695.032 405.462 695.032 398.345C695.032 391.228 689.263 385.459 682.146 385.459C675.029 385.459 669.26 391.228 669.26 398.345C669.26 405.462 675.029 411.231 682.146 411.231Z" fill="#3F3D56"/>
<path d="M522.493 410.341C534.355 405.196 547.599 409.682 558.779 414.424C564.537 416.867 570.234 419.474 576.193 421.403C581.206 423.021 586.34 424.238 591.546 425.041C601.994 426.642 612.619 426.707 623.086 425.234C633.605 423.767 643.857 420.786 653.523 416.384C663.135 412.027 672.019 406.219 679.865 399.161C680.863 398.26 681.842 397.337 682.802 396.394C683.943 395.276 682.19 393.523 681.048 394.641C673.493 402.006 664.82 408.129 655.35 412.782C645.92 417.419 635.861 420.651 625.494 422.373C615.093 424.127 604.487 424.31 594.032 422.917C588.816 422.211 583.665 421.092 578.627 419.568C572.841 417.686 567.165 415.481 561.625 412.965C550.34 408.118 537.802 403.372 525.402 406.715C523.981 407.108 522.59 407.604 521.242 408.2C519.782 408.834 521.043 410.97 522.493 410.341V410.341Z" fill="#3F3D56"/>
</svg>
