<svg width="300" height="300" viewBox="0 0 300 300" fill="none" xmlns="http://www.w3.org/2000/svg">
<g clip-path="url(#clip0)">
<path d="M300 120C300 219.411 219.411 300 120 300V300C53.7258 300 0 246.274 0 180L0 0L225 0C266.421 0 300 33.5786 300 75V120Z" fill="url(#paint0_linear)"/>
<line x1="253.636" y1="335.343" x2="3.6363" y2="70.3431" stroke="white"/>
<line x1="265.552" y1="326.222" x2="122.552" y2="38.2224" stroke="white"/>
<line x1="174.634" y1="338.341" x2="-4.36571" y2="146.341" stroke="white"/>
<line x1="101.75" y1="337.567" x2="295.75" y2="225.567" stroke="white"/>
<path opacity="0.1" d="M81.0022 92.7831L42.9264 130.893L81.0022 169.003L69.3937 180.619L19.7095 130.893L69.3937 81.1675L81.0022 92.7831Z" fill="black"/>
<path d="M81.0022 100.164L42.9264 138.274L81.0022 176.384L69.3937 188L19.7095 138.274L69.3937 88.5486L81.0022 100.164Z" fill="#2A2753"/>
<path opacity="0.1" d="M210.707 92.7831L248.822 130.893L210.746 169.003L222.354 180.619L272 130.893L222.316 81.1675L210.707 92.7831Z" fill="black"/>
<path d="M210.707 100.164L248.822 138.274L210.746 176.384L222.354 188L272 138.274L222.316 88.5487L210.707 100.164Z" fill="#2A2753"/>
<path d="M144 84.0002C155.568 84.0002 166.777 88.0111 175.72 95.3496C184.662 102.688 190.782 112.9 193.039 124.245C195.296 135.591 193.549 147.368 188.096 157.57C182.643 167.772 173.821 175.767 163.134 180.194C152.447 184.621 140.555 185.205 129.486 181.847C118.416 178.489 108.853 171.397 102.427 161.779C95.9999 152.16 93.107 140.611 94.2408 129.099C95.3747 117.587 100.465 106.824 108.645 98.6448C113.277 93.9874 118.787 90.2949 124.855 87.7811C130.924 85.2674 137.431 83.9823 144 84.0002V84.0002ZM144 183.618C171.359 183.618 193.618 161.36 193.618 134C193.618 106.64 171.359 84.3819 144 84.3819C116.64 84.3819 94.3818 106.64 94.3818 134C94.3818 161.36 116.64 183.618 144 183.618V183.618Z" fill="#2F2E41"/>
<path d="M117.853 118.032L117.859 118.029L142.594 104.184L169.68 117.797L170.147 118.032L168.741 146.294L144.281 163.817L144.011 163.647L118.697 147.707L117.853 118.032Z" fill="#BCBBBD"/>
<path opacity="0.3" d="M117.853 117.917L142.376 104.183L169.229 117.687L145.442 134.459L117.853 117.917Z" fill="black"/>
<path opacity="0.1" d="M117.853 117.945L145.376 134.713L143.719 163.817L118.687 147.787L117.853 117.945Z" fill="black"/>
<path d="M169.093 138.128L169.229 138.321L144.691 155.56L118.771 139.384L118.896 139.184L144.684 155.277L169.093 138.128Z" fill="#F2F2F2"/>
<path d="M169.098 128.037L169.229 128.229L145.053 144.55L144.989 144.515L118.771 129.739L118.886 129.537L145.041 144.277L169.098 128.037Z" fill="#F2F2F2"/>
<path d="M159.931 113.358L160.055 113.56L135.52 128.901V158.312H135.284V128.769L159.931 113.358Z" fill="#F2F2F2"/>
<path d="M149.838 108.771L149.963 108.971L126.346 123.834V152.807H126.11V123.703L149.838 108.771Z" fill="#F2F2F2"/>
<path d="M127.142 113.358L154.55 128.662L154.547 128.735L153.104 157.395L152.869 157.382L154.308 128.797L127.028 113.564L127.142 113.358Z" fill="#F2F2F2"/>
<path d="M135.395 108.771L162.807 123.075L162.803 123.151L161.187 151.89L160.95 151.877L162.561 123.214L135.284 108.98L135.395 108.771Z" fill="#F2F2F2"/>
<path d="M113.266 163.817C108.199 163.817 104.092 168.129 104.092 173.45C104.092 178.77 108.199 183.083 113.266 183.083C118.333 183.083 122.44 178.77 122.44 173.45C122.44 168.129 118.333 163.817 113.266 163.817Z" fill="#2A2753"/>
<path d="M47.6697 152.807C47.4164 152.807 47.211 153.218 47.211 153.725C47.211 154.231 47.4164 154.642 47.6697 154.642C47.923 154.642 48.1284 154.231 48.1284 153.725C48.1284 153.218 47.923 152.807 47.6697 152.807Z" fill="#FFB9B9"/>
</g>
<defs>
<linearGradient id="paint0_linear" x1="25" y1="284.5" x2="296.5" y2="9" gradientUnits="userSpaceOnUse">
<stop stop-color="#844FF3"/>
<stop offset="1" stop-color="#2ED0F3"/>
</linearGradient>
<clipPath id="clip0">
<path d="M300 120C300 219.411 219.411 300 120 300V300C53.7258 300 0 246.274 0 180L0 0L225 0C266.421 0 300 33.5786 300 75V120Z" fill="white"/>
</clipPath>
</defs>
</svg>
